<svg width="20" height="20" viewBox="0 0 20 20" fill="none" overflow="visible" xmlns="http://www.w3.org/2000/svg">
<g clip-path="url(#nss_clip)">
<g filter="url(#nss_shadow)">
<path d="M10.3842 6.26773C10.2523 5.91076 9.7477 5.91076 9.6158 6.26773C9.04161 7.81913 7.81856 9.04217 6.26773 9.6158C5.91076 9.7477 5.91076 10.2523 6.26773 10.3842C7.81913 10.9584 9.04217 12.1814 9.6158 13.7323C9.7477 14.0892 10.2523 14.0892 10.3842 13.7323C10.9584 12.1809 12.1814 10.9578 13.7323 10.3842C14.0892 10.2523 14.0892 9.7477 13.7323 9.6158C12.1809 9.04161 10.9578 7.81856 10.3842 6.26773Z" fill="url(#nss_grad)"/>
</g>
</g>
<defs>
<filter id="nss_shadow" x="-0.102564" y="3.48718" width="20.2051" height="20.2051" filterUnits="userSpaceOnUse" color-interpolation-filters="sRGB">
<feFlood flood-opacity="0" result="BackgroundImageFix"/>
<feColorMatrix in="SourceAlpha" type="matrix" values="0 0 0 0 0 0 0 0 0 0 0 0 0 0 0 0 0 0 127 0" result="hardAlpha"/>
<feOffset dy="3.58974"/>
<feGaussianBlur stdDeviation="3.05128"/>
<feComposite in2="hardAlpha" operator="out"/>
<feColorMatrix type="matrix" values="0 0 0 0 1 0 0 0 0 1 0 0 0 0 1 0 0 0 0.25 0"/>
<feBlend mode="normal" in2="BackgroundImageFix" result="effect1_dropShadow"/>
<feBlend mode="normal" in="SourceGraphic" in2="effect1_dropShadow" result="shape"/>
</filter>
<linearGradient id="nss_grad" x1="10" y1="6" x2="10" y2="14" gradientUnits="userSpaceOnUse">
<stop stop-color="#F09ED8"/>
<stop offset="1" stop-color="#836DFF"/>
</linearGradient>
<clipPath id="nss_clip"><rect width="20" height="20" fill="white"/></clipPath>
</defs>
</svg>
